HIERARCHY
ROOT pelvis
{
  OFFSET 0 100 0
  CHANNELS 6 Xposition Yposition Zposition Zrotation Xrotation Yrotation
  JOINT pelvis_right_femur
  {
    OFFSET -10.78128 -3.44521 -0.5502486
    CHANNELS 3 Zrotation Xrotation Yrotation
    JOINT right_femur_tibia
    {
      OFFSET -0.8047443 -44.0398 -0.1307829
      CHANNELS 3 Zrotation Xrotation Yrotation
      JOINT right_tibia_foot
      {
        OFFSET 3.006224 -47.83518 -5
        CHANNELS 3 Zrotation Xrotation Yrotation
        End Site
        {
          OFFSET 0 -5 15
        }
      }
    }
  }
  JOINT pelvis_left_femur
  {
    OFFSET 10.78128 -3.44521 -0.5502486
    CHANNELS 3 Zrotation Xrotation Yrotation
    JOINT left_femur_tibia
    {
      OFFSET 0.8047443 -44.0398 -0.1307829
      CHANNELS 3 Zrotation Xrotation Yrotation
      JOINT left_tibia_foot
      {
        OFFSET -4.370144 -48.10324 -4.275266
        CHANNELS 3 Zrotation Xrotation Yrotation
        End Site
        {
          OFFSET 0 -5 15
        }
      }
    }
  }
  JOINT pelvis_spine1
  {
    OFFSET 0 6.468898 -3.129235
    CHANNELS 3 Zrotation Xrotation Yrotation
    JOINT spine1
    {
      OFFSET 0 23.15396 4.99043
      CHANNELS 3 Zrotation Xrotation Yrotation
      JOINT spine2
      {
        OFFSET 0 20.79997 -5.064912
        CHANNELS 3 Zrotation Xrotation Yrotation
        JOINT neck
        {
          OFFSET 0 14.38658 9.616178
          CHANNELS 3 Zrotation Xrotation Yrotation
          End Site
          {
            OFFSET 0 20 0
          }
        }
      }
      JOINT right_manubrium
      {
        OFFSET -5.722621 16.35077 3.967754
        CHANNELS 3 Zrotation Xrotation Yrotation
        JOINT right_clavicle
        {
          OFFSET -13.16364 1.694482 -4.693211
          CHANNELS 3 Zrotation Xrotation Yrotation
          JOINT right_humerus
          {
            OFFSET -28.5034 -0.3100689 -2.792744
            CHANNELS 3 Zrotation Xrotation Yrotation
            JOINT right_radius
            {
              OFFSET -25.15693 0.02248979 -1.271978
              CHANNELS 3 Zrotation Xrotation Yrotation
              End Site
              {
                OFFSET -15 0 0
              }
            }
          }
        }
      }
      JOINT left_manubrium
      {
        OFFSET 5.722621 16.35077 3.967754
        CHANNELS 3 Zrotation Xrotation Yrotation
        JOINT left_clavicle
        {
          OFFSET 13.16364 1.694482 -4.693211
          CHANNELS 3 Zrotation Xrotation Yrotation
          JOINT left_humerus
          {
            OFFSET 29.39168 -1.063119 -2.237045
            CHANNELS 3 Zrotation Xrotation Yrotation
            JOINT left_radius
            {
              OFFSET 24.59957 -0.9528479 0.9047498
              CHANNELS 3 Zrotation Xrotation Yrotation
              End Site
              {
                OFFSET 15 -0 -0
              }
            }
          }
        }
      }
    }
  }
}
MOTION
Frames: 23
Frame Time: 0.0416666666667
64.56502 103.7839 3058.601 0.2820825 -8.099185 -6.718874 1.057945 13.87959 2.814507 -0 34.20791 -0 -1.590887 -4.99505 -2.574341 -1.751594 -17.23057 -5.764441 -0 17.34992 -0 -3.674739 -8.766585 18.47727 -0.2778029 -1.317249 8.987488 -1.300219 13.83697 -3.675452 1.617893 20.66735 3.651224 1.31285 -17.98156 5.232384 -0.3515226 -26.29569 12.33036 84.27615 19.95335 -6.228991 -0 0 26.5952 -27.66907 13.14564 17.32225 2.927826 -18.03321 -4.767026 -94.09838 16.76346 31.26926 0 0 -8.592191 0.2951765 7.907854 13.20599
64.76173 104.2872 3065.228 0.5475163 -8.555217 -6.179942 0.3541178 10.79754 3.062044 -0 41.24035 -0 -0.8120192 -2.096026 -3.554929 -3.071652 -12.95392 -6.740233 -0 18.54356 -0 -4.1043 -9.824251 18.03881 -0.3510561 -1.220425 8.610842 -1.149342 13.63804 -3.923833 1.652134 20.78666 3.745993 1.352488 -17.89561 5.335935 -0.3195374 -25.56415 12.22104 84.7336 20.08613 -7.220068 -0 0 25.35361 -27.28019 13.07086 16.84389 3.085098 -18.31601 -4.851639 -93.30721 17.19805 29.68885 0 0 -9.774076 0.4207365 7.899486 13.0347
64.96229 105.1519 3071.784 0.7952916 -8.666299 -5.442055 -0.1086475 6.558456 3.179462 -0 46.53997 -0 -0.3055749 0.2860699 -4.45986 -4.3009 -8.021768 -7.841716 -0 19.20957 -0 -4.232463 -11.17084 17.61441 -0.4121564 -1.14096 8.134454 -0.9402648 13.45884 -4.287712 1.67547 20.89579 3.876496 1.406594 -17.86353 5.462213 -0.295167 -24.69453 12.11299 85.416 20.23963 -8.611606 -0 0 23.72585 -26.79784 13.01865 16.23568 3.292466 -18.79163 -4.995402 -92.25374 17.5873 27.68138 0 0 -11.43333 0.7256775 7.945405 12.65058
65.16178 106.1729 3078.15 0.957972 -8.312923 -4.602857 -0.2040795 1.486643 3.142432 -0 48.72022 -0 -0.2753735 1.633191 -5.081155 -5.228765 -3.026283 -8.974812 -0 19.08537 -0 -3.946144 -12.68359 17.28596 -0.4534041 -1.089674 7.579009 -0.6787905 13.31906 -4.760834 1.683192 20.98173 4.039225 1.473953 -17.899 5.604638 -0.2811973 -23.73292 12.01665 86.31806 20.39423 -10.36972 -0 0 21.77177 -26.24552 12.9981 15.52352 3.541336 -19.46086 -5.197839 -90.97919 17.86971 25.32884 0 0 -13.53138 1.220792 8.046476 12.04379
65.34242 107.0947 3084.249 0.9725383 -7.502833 -3.775065 0.1107067 -3.935963 2.934144 -0 46.95874 -0 -0.8111871 1.752971 -5.303596 -5.703055 1.457001 -9.976012 -0 18.18012 -0 -3.287267 -14.1899 17.04284 -0.469523 -1.074828 6.974558 -0.3756714 13.23471 -5.326396 1.671804 21.03225 4.227597 1.552382 -18.00872 5.754448 -0.277995 -22.73571 11.94184 87.40984 20.5291 -12.42145 -0 0 19.58763 -25.65485 13.01681 14.74524 3.817834 -20.3044 -5.452116 -89.55312 17.99392 22.75534 0 0 -15.98611 1.89548 8.192162 11.23054
65.47369 107.69 3090.096 0.8196429 -6.386237 -3.042283 0.7546113 -9.290766 2.537041 -0 41.51721 -0 -1.804427 0.9317557 -5.189691 -5.71191 5.170296 -10.65712 -0 16.77916 -0 -2.463879 -15.55553 16.76169 -0.4616315 -1.096601 6.35385 -0.04553893 13.20802 -5.956631 1.641305 21.04206 4.432897 1.639075 -18.18548 5.903253 -0.2808227 -21.75213 11.89307 88.63348 20.63107 -14.65942 -0 0 17.2897 -25.05619 13.07519 13.94193 4.10541 -21.27671 -5.742935 -88.06146 17.94436 20.09917 0 0 -18.67578 2.707389 8.359118 10.26399
65.51957 107.8256 3095.784 0.5346127 -5.190134 -2.440001 1.561844 -14.32737 1.960872 -0 33.65254 -0 -3.012753 -0.247756 -4.923419 -5.379086 8.213506 -10.89729 -0 15.39598 -0 -1.749569 -16.71033 16.29039 -0.4370947 -1.146198 5.745209 0.2950866 13.22553 -6.61629 1.59593 21.01607 4.645384 1.730638 -18.40857 6.045231 -0.2821318 -20.81411 11.86759 89.91443 20.69718 -16.95998 -0 0 14.9915 -24.47176 13.16376 13.14924 4.388626 -22.31274 -6.04901 -86.58831 17.74702 17.48318 0 0 -21.45602 3.590287 8.520638 9.223268
65.4497 107.488 3101.448 0.1871307 -4.141869 -1.965813 2.360112 -18.84397 1.268521 -0 25.07856 -0 -4.180936 -1.217957 -4.688547 -4.886693 10.79267 -10.686 -0 14.65595 -0 -1.371358 -17.59567 15.54782 -0.404895 -1.210843 5.178734 0.6252539 13.26802 -7.26026 1.542776 20.96619 4.852184 1.821704 -18.65001 6.175041 -0.2773847 -19.95511 11.85905 91.1626 20.72938 -19.17403 -0 0 12.82141 -23.92549 13.26668 12.40616 4.651632 -23.33172 -6.345505 -85.22283 17.45264 15.04202 0 0 -24.14577 4.465847 8.657789 8.199148
65.25058 106.7768 3107.226 -0.1441694 -3.430484 -1.59776 3.027179 -22.53229 0.5778162 -0 17.49017 -0 -5.104493 -1.618408 -4.603705 -4.40544 12.96952 -10.1026 -0 15.17249 -0 -1.455782 -18.11007 14.56811 -0.371498 -1.279073 4.698315 0.9156044 13.32184 -7.828666 1.489702 20.90496 5.034575 1.903676 -18.88004 6.283794 -0.2677445 -19.23604 11.86265 92.26127 20.73352 -21.10383 -0 0 10.95858 -23.45817 13.3684 11.77108 4.873816 -24.235 -6.604447 -84.07565 17.1223 12.97088 0 0 -26.50104 5.246641 8.761809 7.291664
64.93184 105.8834 3113.235 -0.3924222 -3.182115 -1.310091 3.522566 -24.97777 0.04790879 -0 12.21794 -0 -5.655432 -1.363728 -4.717865 -4.0515 14.59255 -9.282065 -0 17.44713 -0 -2.011479 -18.10885 13.49524 -0.339578 -1.343304 4.355937 1.133365 13.3828 -8.257412 1.443419 20.84154 5.171257 1.966338 -19.07253 6.359726 -0.2587718 -18.73723 11.87699 93.08429 20.72173 -22.53568 -0 0 9.606752 -23.12275 13.45882 11.31408 5.032554 -24.92282 -6.79962 -83.25951 16.81751 11.49727 0 0 -28.25706 5.849595 8.83248 6.595505
64.52234 105.0512 3119.53 -0.5231772 -3.424786 -1.088199 3.900158 -25.80873 -0.1564227 -0 9.841006 -0 -5.816246 -0.6617336 -5.016099 -3.850935 15.36695 -8.381342 -0 21.75785 -0 -2.928643 -17.45327 12.54131 -0.3094681 -1.399371 4.18594 1.256387 13.45119 -8.504237 1.408309 20.78201 5.247541 2.002231 -19.21071 6.394632 -0.2568942 -18.51408 11.90159 93.54829 20.70783 -23.3307 -0 0 8.899676 -22.9571 13.53332 11.0827 5.113769 -25.33168 -6.915929 -82.83824 16.58528 10.76966 0 0 -29.24 6.223831 8.875628 6.167865
64.05666 104.517 3126.082 -0.5466152 -4.066586 -0.9438679 4.279028 -24.85007 0.08470054 -0 9.977027 -0 -5.700709 0.02325728 -5.418746 -3.731501 14.96914 -7.557988 -0 28.04887 -0 -4.001013 -16.073 11.93199 -0.2816777 -1.444246 4.189379 1.280804 13.52446 -8.562008 1.38657 20.73157 5.260645 2.009357 -19.28765 6.388286 -0.2658394 -18.56759 11.934 93.64165 20.69892 -23.47241 -0 0 8.846683 -22.96583 13.58888 11.08061 5.117656 -25.45133 -6.952424 -82.80577 16.4478 10.79145 0 0 -29.42592 6.360917 8.898184 6.016607
63.56134 104.4489 3132.764 -0.5086294 -4.919099 -0.9229488 4.763018 -22.17455 0.7982651 -0 11.5569 -0 -5.513559 0.1146291 -5.791566 -3.571133 13.1626 -6.960249 -0 35.81766 -0 -4.975984 -14.02171 11.85642 -0.2574591 -1.475171 4.34785 1.213536 13.59677 -8.443978 1.379177 20.6949 5.214977 1.989245 -19.30191 6.345346 -0.2866177 -18.86591 11.9703 93.3958 20.69212 -23.01426 -0 0 9.384799 -23.13282 13.62193 11.2853 5.052184 -25.30157 -6.915249 -83.12287 16.40598 11.48248 0 0 -28.87785 6.275503 8.904444 6.123108
63.05138 104.8947 3139.379 -0.4657219 -5.759762 -1.090695 5.349304 -18.09448 1.866257 -0 13.38195 -0 -5.445333 -0.8077264 -5.986983 -3.278675 9.924751 -6.676028 -0 43.96264 -0 -5.637171 -11.5284 12.39121 -0.2369571 -1.49158 4.642852 1.062884 13.66482 -8.166326 1.386116 20.67439 5.115687 1.944002 -19.25601 6.270477 -0.3205365 -19.37941 12.00803 92.8505 20.67489 -22.01618 -0 0 10.44782 -23.4413 13.62985 11.6733 4.92493 -24.90828 -6.811587 -83.75715 16.44337 12.76474 0 0 -27.66793 5.989588 8.897388 6.460823
62.53873 105.7544 3145.755 -0.4592688 -6.403311 -1.493152 5.908163 -13.14488 3.002511 -0 14.53144 -0 -5.562522 -2.734035 -5.904045 -2.836148 5.548837 -6.641326 -0 50.7783 -0 -5.888388 -9.003246 13.41133 -0.2171025 -1.498243 5.053664 0.841212 13.73292 -7.753902 1.404982 20.66728 4.970033 1.876872 -19.16223 6.168545 -0.370704 -20.08118 12.04801 92.06457 20.62686 -20.56208 -0 0 11.95453 -23.87236 13.6149 12.21715 4.744618 -24.31476 -6.653415 -84.67279 16.51977 14.55403 0 0 -25.89777 5.545666 8.883086 6.980142
62.04354 106.8034 3151.839 -0.4992614 -6.757414 -2.120674 6.272077 -7.963442 3.848846 -0 14.55227 -0 -5.780791 -5.198674 -5.520841 -2.268374 0.5840393 -6.635979 -0 54.4651 -0 -5.768591 -6.916647 14.61451 -0.1922447 -1.504949 5.545848 0.571334 13.81142 -7.252263 1.430202 20.66538 4.791827 1.794234 -19.04549 6.047311 -0.4395477 -20.92665 12.09328 91.13603 20.52909 -18.80307 -0 0 13.76601 -24.39264 13.58589 12.87018 4.526698 -23.59845 -6.462155 -85.79775 16.57538 16.70663 0 0 -23.75032 5.01787 8.87186 7.59539
61.59593 107.7693 3157.718 -0.5651979 -6.835304 -2.906294 6.349015 -3.037501 4.16976 -0 13.52023 -0 -5.950606 -7.603407 -4.87793 -1.598304 -4.424009 -6.433629 -0 54.00973 -0 -5.383729 -5.582705 15.70684 -0.1590237 -1.51918 6.080182 0.278672 13.90641 -6.711166 1.456084 20.66069 4.597432 1.703821 -18.92923 5.915735 -0.5242189 -21.85821 12.14544 90.16415 20.378 -16.90649 -0 0 15.72704 -24.96142 13.55206 13.57899 4.289129 -22.83852 -6.25905 -87.0406 16.56501 19.05117 0 0 -21.42854 4.475224 8.870313 8.22726
61.22779 108.4175 3163.532 -0.6248957 -6.714203 -3.759211 6.155891 1.446671 3.968441 -0 11.8893 -0 -5.971441 -9.591692 -4.046354 -0.8487408 -9.156088 -5.959675 -0 49.64118 -0 -4.829626 -5.035218 16.57 -0.1199622 -1.539747 6.63456 -0.02382593 14.0121 -6.154448 1.480815 20.65171 4.396397 1.610445 -18.81896 5.779299 -0.6163726 -22.83419 12.20245 89.19087 20.18446 -14.95603 -0 0 17.75549 -25.55214 13.51479 14.31304 4.041703 -22.06591 -6.050808 -88.34705 16.48345 21.48305 0 0 -19.03459 3.935456 8.873473 8.856063
60.96389 108.6013 3169.389 -0.6538427 -6.483685 -4.600463 5.773633 5.499463 3.429147 -0 10.22218 -0 -5.828159 -11.11374 -3.11271 -0.06776026 -13.49282 -5.303642 -0 42.52022 -0 -4.171448 -5.095268 17.24949 -0.08131105 -1.559359 7.204307 -0.3355127 14.11476 -5.580879 1.506185 20.64283 4.190688 1.515506 -18.70541 5.639917 -0.7067145 -23.83457 12.25983 88.2089 19.96052 -12.95295 -0 0 19.84185 -26.15462 13.46797 15.06527 3.785519 -21.26877 -5.831641 -89.70764 16.35005 23.97235 0 0 -16.57067 3.375808 8.868794 9.508819
60.81716 108.2801 3175.336 -0.6408155 -6.231121 -5.376832 5.285811 9.129354 2.790377 -0 9.069547 -0 -5.550221 -12.2273 -2.182751 0.6558494 -17.33353 -4.632854 -0 34.20103 -0 -3.475103 -5.512932 17.83465 -0.05003259 -1.569882 7.778758 -0.653129 14.1985 -4.993449 1.534537 20.64034 3.983521 1.420887 -18.5786 5.501162 -0.7867952 -24.82902 12.31194 87.21918 19.71733 -10.91391 -0 0 21.95664 -26.75299 13.4047 15.82105 3.523933 -20.44113 -5.59769 -91.10211 16.18923 26.46661 0 0 -14.05765 2.778523 8.844337 10.20628
60.78535 107.5238 3181.372 -0.5847138 -6.053501 -6.055721 4.74168 12.23525 2.259884 -0 8.994102 -0 -5.164161 -12.89999 -1.388612 1.19319 -20.46387 -4.114775 -0 26.30335 -0 -2.846277 -6.05921 18.36255 -0.03273141 -1.564816 8.318565 -0.9572224 14.24733 -4.425427 1.566655 20.65033 3.78772 1.332585 -18.43733 5.373376 -0.8485725 -25.74201 12.35146 86.27494 19.47498 -8.959021 -0 0 23.96343 -27.30382 13.32326 16.52862 3.273575 -19.62307 -5.359432 -92.4408 16.03349 28.79542 0 0 -11.64339 2.164914 8.794888 10.92309
60.84953 106.5025 3187.489 -0.4899517 -6.053909 -6.611961 4.147843 14.62944 1.969348 -0 10.53146 -0 -4.674359 -12.95873 -0.8721864 1.40576 -22.57322 -3.866228 -0 20.21151 -0 -2.428525 -6.575 18.79168 -0.0346537 -1.540079 8.757138 -1.212918 14.24771 -3.939359 1.601685 20.67844 3.624982 1.260146 -18.28976 5.27311 -0.8862375 -26.45688 12.36975 85.47627 19.26703 -7.307658 -0 0 25.62323 -27.73901 13.22885 17.10158 3.064539 -18.90063 -5.142798 -93.56489 15.93279 30.67997 0 0 -9.598029 1.596858 8.72607 11.58558
60.97908 105.4475 3193.699 -0.3611729 -6.302393 -7.01588 3.484248 16.13508 1.951261 -0 14.01136 -0 -4.069082 -12.20032 -0.7354423 1.203322 -23.39662 -3.926654 -0 16.6508 -0 -2.337888 -7.00753 19.04445 -0.05782803 -1.494759 9.032673 -1.387471 14.19335 -3.595085 1.638239 20.72876 3.514908 1.211716 -18.14742 5.215315 -0.8992676 -26.87095 12.35995 84.91646 19.12783 -6.167682 -0 0 26.71145 -27.99863 13.13009 17.46087 2.92613 -18.36071 -4.976048 -94.32322 15.94128 31.86937 0 0 -8.177528 1.14327 8.652759 12.11112
